<?xml version="1.0" encoding="UTF-8"?>
<!--
  EVIDENT TECHNOLOGIES LLC — Usage-context line icons.
  Documents · Compliance · Evidence · Provenance · Protection.
  24x24 grid, single-weight line, navy. Pair with the wordmark in product surfaces.
-->
<svg xmlns="http://www.w3.org/2000/svg" width="600" height="140" viewBox="0 0 600 140"
     font-family="Inter, system-ui, sans-serif">
  <defs>
    <g id="ico-documents" fill="none" stroke="#15294C" stroke-width="1.6" stroke-linecap="round" stroke-linejoin="round">
      <path d="M7,3 H14.5 L18,6.5 V20 a1,1 0 0 1 -1,1 H8 a1,1 0 0 1 -1,-1 Z"/>
      <path d="M14.3,3 V6.7 H18"/>
      <path d="M9.5,11 H15.5 M9.5,14 H15.5 M9.5,17 H13.5"/>
    </g>
    <g id="ico-compliance" fill="none" stroke="#15294C" stroke-width="1.6" stroke-linecap="round" stroke-linejoin="round">
      <path d="M12,3 L19,5.4 V11 C19,15.8 15.6,19.4 12,21 C8.4,19.4 5,15.8 5,11 V5.4 Z"/>
      <path d="M8.8,11.4 L11,13.8 L15.4,8.8"/>
    </g>
    <g id="ico-evidence" fill="none" stroke="#15294C" stroke-width="1.6" stroke-linecap="round" stroke-linejoin="round">
      <ellipse cx="12" cy="6" rx="6" ry="2.4"/>
      <path d="M6,6 V18 C6,19.5 8.7,20.4 12,20.4 C15.3,20.4 18,19.5 18,18 V6"/>
      <path d="M6,12 C6,13.5 8.7,14.4 12,14.4 C15.3,14.4 18,13.5 18,12"/>
    </g>
    <g id="ico-provenance" fill="none" stroke="#15294C" stroke-width="1.6" stroke-linecap="round" stroke-linejoin="round">
      <path d="M7.4,7.8 L16.6,9.6 M6.8,8.8 L10.6,16.4 M16.4,10.4 L12.2,16.6"/>
      <circle cx="6.5" cy="7" r="2.1" fill="#F4EFE3"/>
      <circle cx="17.5" cy="9.4" r="2.1" fill="#F4EFE3"/>
      <circle cx="11.2" cy="17.6" r="2.1" fill="#BF9F4E" stroke="#BF9F4E"/>
    </g>
    <g id="ico-protection" fill="none" stroke="#15294C" stroke-width="1.6" stroke-linecap="round" stroke-linejoin="round">
      <rect x="5.5" y="10.5" width="13" height="9.5" rx="1.6"/>
      <path d="M8.3,10.5 V8 a3.7,3.7 0 0 1 7.4,0 V10.5"/>
      <path d="M12,14 V16.6"/>
    </g>
  </defs>

  <g text-anchor="middle" font-size="11" letter-spacing="1.2" fill="#5B6573">
    <g transform="translate(60,28)"><use href="#ico-documents" transform="scale(1.8)"/></g>
    <text x="82" y="118">DOCUMENTS</text>
    <g transform="translate(180,28)"><use href="#ico-compliance" transform="scale(1.8)"/></g>
    <text x="202" y="118">COMPLIANCE</text>
    <g transform="translate(300,28)"><use href="#ico-evidence" transform="scale(1.8)"/></g>
    <text x="322" y="118">EVIDENCE</text>
    <g transform="translate(420,28)"><use href="#ico-provenance" transform="scale(1.8)"/></g>
    <text x="442" y="118">PROVENANCE</text>
    <g transform="translate(540,28)"><use href="#ico-protection" transform="scale(1.8)"/></g>
    <text x="562" y="118">PROTECTION</text>
  </g>
</svg>
