<?xml version="1.0" encoding="UTF-8"?>
<!--
  EVIDENT TECHNOLOGIES LLC — Stacked Lockup (centered) · v2.
  For square-ish placements: covers, title pages, social cards, seals-with-name.
-->
<svg xmlns="http://www.w3.org/2000/svg" role="img" aria-label="Evident Technologies"
     width="440" height="320" viewBox="0 0 440 320">
  <title>Evident Technologies</title>
  <desc>Stacked logo: E-monogram shield above the EVIDENT TECHNOLOGIES wordmark.</desc>

  <g transform="translate(143,20) scale(1.6)">
    <path d="M28,16 L68,16 Q74,16 74,22 L74,50 C74,67 62,76 48,82 C34,76 22,67 22,50 L22,22 Q22,16 28,16 Z" fill="#15294C"/>
    <path d="M31,20 L65,20 Q70.5,20 70.5,25.5 L70.5,49.5 C70.5,64.5 60,72.5 48,77.8 C36,72.5 25.5,64.5 25.5,49.5 L25.5,25.5 Q25.5,20 31,20 Z" fill="none" stroke="#BF9F4E" stroke-width="1" stroke-opacity="0.45"/>
    <g fill="none" stroke="#F4EFE3" stroke-width="4.6" stroke-linecap="round" stroke-linejoin="round">
      <path d="M37,30.5 L37,49"/><path d="M37,30.5 L60,30.5"/><path d="M37,41.5 L53.5,41.5"/>
    </g>
    <circle cx="58" cy="41.5" r="2.8" fill="#BF9F4E"/>
    <path d="M37,49 L47.5,62.5 L62.5,43.5" fill="none" stroke="#BF9F4E" stroke-width="5" stroke-linecap="round" stroke-linejoin="round"/>
  </g>

  <g font-family="Inter, system-ui, -apple-system, 'Segoe UI', Roboto, Helvetica, Arial, sans-serif" text-anchor="middle">
    <text x="220" y="248" font-size="50" font-weight="700" letter-spacing="4" fill="#15294C">EVIDENT</text>
    <text x="220" y="280" font-size="20" font-weight="500" letter-spacing="9" fill="#5B6573">TECHNOLOGIES</text>
  </g>
</svg>
